<svg width="30" height="29" viewBox="0 0 30 29" fill="none" xmlns="http://www.w3.org/2000/svg">
<path d="M6.0225 4.15025C6.40904 3.97371 6.78029 3.78322 7.10367 3.54791C8.27906 2.6925 9.08736 1.02445 10.4995 0.565959C11.862 0.123576 13.49 0.983498 15 0.983498C16.51 0.983498 18.138 0.123576 19.5005 0.565959C20.9126 1.02445 21.7209 2.6925 22.8963 3.54791C24.0835 4.41187 25.9164 4.67109 26.7804 5.85826C27.6358 7.03365 27.3215 8.85275 27.7801 10.2649C28.2224 11.6273 29.5605 12.9075 29.5605 14.4175C29.5605 15.9274 28.2224 17.2076 27.7801 18.5701C27.3216 19.9822 27.6359 21.8013 26.7804 22.9767C25.9164 24.1638 24.0834 24.423 22.8963 25.287C21.7209 26.1424 20.9126 27.8105 19.5005 28.269C18.138 28.7113 16.51 27.8514 15 27.8514C13.49 27.8514 11.862 28.7113 10.4995 28.269C9.08736 27.8105 8.27906 26.1424 7.10367 25.287C5.9165 24.423 4.08357 24.1638 3.21961 22.9767C2.3642 21.8013 2.6785 19.9822 2.22 18.5701C1.77756 17.2076 0.439453 15.9274 0.439453 14.4175C0.439453 12.9075 1.77756 11.6273 2.21994 10.2649C2.67844 8.85275 2.36414 7.03365 3.21961 5.85826C3.49219 5.48373 3.86115 5.2016 4.27594 4.96365" fill="#77D1B3"/>
<path d="M26.8035 14.4174C26.8035 15.6415 25.7187 16.6793 25.3601 17.7838C24.9885 18.9285 25.2433 20.4031 24.5498 21.356C23.8494 22.3183 22.3635 22.5284 21.4011 23.2289C20.4483 23.9223 19.7931 25.2745 18.6484 25.6462C17.5439 26.0049 16.224 25.3078 15 25.3078C13.776 25.3078 12.4562 26.0049 11.3517 25.6462C10.2069 25.2746 9.55173 23.9223 8.59888 23.2289C7.63653 22.5285 6.15065 22.3184 5.45022 21.356C4.75677 20.4031 5.01153 18.9285 4.63987 17.7838C4.28122 16.6793 3.19653 15.6416 3.19653 14.4175C3.19653 13.1935 4.28128 12.1556 4.63987 11.0512C5.01153 9.90641 4.75677 8.43178 5.45022 7.47899C6.1506 6.51664 7.63647 6.30653 8.59888 5.6061C9.55173 4.91264 10.2069 3.56047 11.3517 3.18875C12.4562 2.8301 13.776 3.52719 15 3.52719C16.224 3.52719 17.5439 2.8301 18.6484 3.18875C19.7931 3.56041 20.4483 4.91264 21.4011 5.6061C22.3635 6.30647 23.8494 6.51658 24.5498 7.47899C25.2433 8.43184 24.9885 9.90647 25.3601 11.0512C25.7187 12.1556 26.8035 13.1934 26.8035 14.4174Z" fill="#F5F5F5"/>
<path d="M27.7801 10.2649C27.3216 8.85277 27.6359 7.03367 26.7804 5.85828C25.9164 4.67111 24.0835 4.41189 22.8963 3.54792C21.721 2.69252 20.9127 1.02447 19.5005 0.565973C18.9237 0.378649 18.2992 0.425056 17.6562 0.540602C17.6851 0.548747 17.7141 0.556657 17.7427 0.565973C19.1548 1.02447 19.9631 2.69252 21.1385 3.54792C22.3257 4.41189 24.1586 4.67111 25.0226 5.85828C25.878 7.03367 25.5637 8.85277 26.0222 10.2649C26.4646 11.6273 27.8028 12.9075 27.8028 14.4175C27.8028 15.9274 26.4646 17.2076 26.0223 18.5701C25.5638 19.9822 25.8781 21.8013 25.0226 22.9767C24.1586 24.1638 22.3256 24.4231 21.1385 25.287C19.9631 26.1424 19.1548 27.8105 17.7427 28.269C17.7141 28.2783 17.6851 28.2862 17.6562 28.2944C18.2992 28.4099 18.9237 28.4563 19.5005 28.269C20.9127 27.8105 21.721 26.1424 22.8963 25.287C24.0835 24.4231 25.9164 24.1638 26.7804 22.9767C27.6358 21.8013 27.3216 19.9822 27.7801 18.5701C28.2225 17.2076 29.5606 15.9274 29.5606 14.4175C29.5606 12.9075 28.2225 11.6273 27.7801 10.2649Z" fill="#67B59F"/>
<path d="M25.3602 11.0512C24.9885 9.90642 25.2433 8.43179 24.5498 7.47899C23.8495 6.51665 22.3636 6.30648 21.4012 5.60616C20.4483 4.91271 19.7931 3.56048 18.6484 3.18882C18.1186 3.01679 17.5393 3.0878 16.9448 3.2081C18.056 3.60431 18.7057 4.92378 19.6434 5.6061C20.6057 6.30648 22.0916 6.51659 22.792 7.47894C23.4855 8.43179 23.2307 9.90642 23.6024 11.0511C23.961 12.1556 25.0457 13.1934 25.0457 14.4174C25.0457 15.6415 23.961 16.6793 23.6024 17.7838C23.2307 18.9285 23.4855 20.4031 22.792 21.3559C22.0916 22.3183 20.6058 22.5285 19.6434 23.2288C18.7058 23.9111 18.056 25.2306 16.9448 25.6268C17.5393 25.7471 18.1186 25.8181 18.6484 25.6462C19.7931 25.2744 20.4483 23.9223 21.4012 23.2288C22.3635 22.5285 23.8494 22.3183 24.5498 21.3559C25.2433 20.4031 24.9885 18.9285 25.3602 17.7838C25.7188 16.6793 26.8035 15.6415 26.8035 14.4174C26.8036 13.1934 25.7188 12.1557 25.3602 11.0512Z" fill="#EBE5ED"/>
<path d="M12.0018 19.1398L9.82016 16.5149C9.49092 16.1187 9.54512 15.5306 9.94133 15.2014L10.5529 14.6931C10.9491 14.3638 11.5371 14.4181 11.8664 14.8142L12.9655 16.1367C13.2281 16.4527 13.7077 16.469 13.9911 16.1714L19.61 10.6892C19.9653 10.3162 20.5557 10.3019 20.9286 10.6572L21.5045 11.2057C21.8775 11.561 21.8918 12.1514 21.5365 12.5244L14.7495 19.2329C13.9901 20.03 12.7054 19.9865 12.0018 19.1398Z" fill="#67B59F"/>
<path d="M21.5047 11.2057L20.9288 10.6572C20.5558 10.3018 19.9655 10.3162 19.6102 10.6892L19.4098 10.8846L19.7469 11.2057C20.1198 11.561 20.1342 12.1514 19.7789 12.5244L12.9918 19.2328C12.8554 19.3761 12.7018 19.4917 12.5378 19.5809C13.2445 19.965 14.157 19.8549 14.7496 19.2328L21.5367 12.5244C21.892 12.1514 21.8777 11.561 21.5047 11.2057Z" fill="#56988C"/>
<path d="M28.9525 11.6168C28.6455 11.1013 28.3556 10.6142 28.1981 10.1291C28.0308 9.6138 27.9746 9.03038 27.9152 8.41269C27.8201 7.42567 27.7219 6.40503 27.1358 5.5996C26.5435 4.78579 25.5991 4.37722 24.6858 3.98206C24.1202 3.73737 23.586 3.50622 23.1549 3.19251C22.732 2.88472 22.3525 2.45206 21.9506 1.99403C21.2904 1.24146 20.6077 0.463273 19.6362 0.147863C18.7068 -0.153954 17.7148 0.0659488 16.7554 0.278527C16.1667 0.409015 15.558 0.543898 15 0.543898C14.4421 0.543898 13.8333 0.408957 13.2446 0.278527C12.2852 0.0659488 11.2932 -0.153954 10.3637 0.147921C9.39228 0.463332 8.70961 1.24152 8.04938 1.99409C7.6476 2.45206 7.26803 2.88472 6.8451 3.19251C6.69627 3.30085 6.52646 3.4055 6.32596 3.51243C6.1118 3.62663 6.03082 3.89282 6.14502 4.10698C6.25922 4.32114 6.52541 4.40206 6.73963 4.28786C6.97647 4.16153 7.1802 4.03568 7.3623 3.90308C7.86428 3.53775 8.2943 3.04761 8.71014 2.57364C9.31881 1.87989 9.89367 1.22458 10.6352 0.983761C11.3371 0.755949 12.1713 0.940812 13.0545 1.13657C13.6894 1.27726 14.3459 1.42275 15.0001 1.42275C15.6543 1.42275 16.3108 1.27726 16.9457 1.13652C17.829 0.940812 18.6633 0.755949 19.3649 0.983703C20.1065 1.22446 20.6814 1.87978 21.2901 2.57359C21.7059 3.04755 22.1359 3.53769 22.6379 3.90302C23.1477 4.27403 23.7523 4.5356 24.337 4.78855C25.179 5.15282 25.9743 5.49694 26.4253 6.11663C26.8702 6.728 26.9529 7.58716 27.0405 8.49677C27.1018 9.13433 27.1653 9.79357 27.3623 10.4004C27.5503 10.9792 27.8794 11.5319 28.1976 12.0664C28.6724 12.8643 29.1211 13.6179 29.1211 14.4174C29.1211 15.2169 28.6724 15.9706 28.1973 16.7684C27.8791 17.3029 27.55 17.8556 27.3621 18.4343C27.1651 19.0411 27.1017 19.7004 27.0403 20.338C26.9527 21.2475 26.87 22.1067 26.4251 22.7181C25.9741 23.3378 25.1788 23.6819 24.3367 24.0461C23.752 24.2991 23.1475 24.5607 22.6377 24.9317C22.1357 25.297 21.7057 25.7871 21.2899 26.2611C20.6812 26.9549 20.1063 27.6102 19.3648 27.8509C18.663 28.0788 17.8288 27.8939 16.9455 27.6981C16.3106 27.5574 15.6541 27.4119 14.9999 27.4119C14.3457 27.4119 13.6893 27.5574 13.0543 27.6981C12.1711 27.8939 11.3369 28.0787 10.6351 27.8509C9.8935 27.6102 9.31857 26.9549 8.70996 26.261C8.29412 25.7871 7.86416 25.2969 7.36213 24.9316C6.85236 24.5606 6.24773 24.299 5.66309 24.0461C4.82109 23.6818 4.02574 23.3377 3.57475 22.7181C3.12984 22.1067 3.04717 21.2475 2.95957 20.3379C2.89822 19.7004 2.83477 19.0411 2.63777 18.4343C2.44986 17.8556 2.1208 17.3029 1.80258 16.7684C1.32762 15.9706 0.878906 15.2169 0.878906 14.4174C0.878906 13.6179 1.32762 12.8643 1.8027 12.0665C2.12092 11.532 2.44998 10.9793 2.63789 10.4005C2.83494 9.79374 2.89834 9.13444 2.95975 8.49689C3.04729 7.58728 3.12996 6.72812 3.57492 6.11675C3.83127 5.76454 4.21529 5.47292 4.82016 5.17122C5.03736 5.06288 5.12561 4.79898 5.01727 4.58183C4.90893 4.36462 4.64502 4.27638 4.42787 4.38472C3.93123 4.63245 3.30469 4.99444 2.86424 5.59966C2.27807 6.40509 2.17986 7.42567 2.08482 8.41275C2.02541 9.03044 1.96922 9.61386 1.80193 10.1292C1.64443 10.6143 1.35445 11.1013 1.04748 11.6169C0.5325 12.4817 0 13.3761 0 14.4174C0 15.4588 0.5325 16.3532 1.04748 17.2181C1.35445 17.7337 1.64443 18.2206 1.80193 18.7058C1.96922 19.2211 2.02535 19.8045 2.08482 20.4221C2.1798 21.4092 2.27807 22.4298 2.86424 23.2353C3.4565 24.0491 4.40092 24.4576 5.31422 24.8528C5.87982 25.0975 6.41408 25.3286 6.8451 25.6424C7.26803 25.9501 7.64754 26.3827 8.04938 26.8408C8.70961 27.5933 9.39234 28.3716 10.3638 28.6869C10.6911 28.7932 11.0261 28.8348 11.3648 28.8348C11.9878 28.8348 12.6231 28.694 13.2446 28.5563C13.8333 28.4258 14.4421 28.291 15 28.291C15.558 28.291 16.1667 28.4258 16.7554 28.5563C17.7148 28.7689 18.7068 28.9888 19.6363 28.6869C20.6077 28.3715 21.2904 27.5933 21.9506 26.8408C22.3524 26.3827 22.732 25.9501 23.1549 25.6423C23.5859 25.3286 24.1202 25.0975 24.6858 24.8527C25.5991 24.4576 26.5435 24.049 27.1358 23.2352C27.7219 22.4298 27.8201 21.4091 27.9152 20.4221C27.9746 19.8044 28.0308 19.221 28.1981 18.7057C28.3556 18.2206 28.6455 17.7336 28.9525 17.218C29.4675 16.3531 30 15.4588 30 14.4174C30 13.3761 29.4675 12.4817 28.9525 11.6168Z" fill="black"/>
<path d="M4.22192 10.9154C4.09712 11.2998 3.86433 11.6907 3.61794 12.1045C3.19472 12.8153 2.75708 13.5503 2.75708 14.4174C2.75708 15.2845 3.19472 16.0195 3.61794 16.7303C3.86433 17.1442 4.09706 17.535 4.22192 17.9194C4.35476 18.3285 4.39981 18.797 4.44757 19.2931C4.52562 20.1043 4.60636 20.9432 5.09491 21.6145C5.58839 22.2926 6.36458 22.6284 7.11517 22.9531C7.56933 23.1497 7.99829 23.3352 8.34024 23.5841C8.67563 23.8282 8.98032 24.1755 9.30288 24.5432C9.84552 25.1618 10.4066 25.8013 11.2159 26.0641C11.4909 26.1534 11.7711 26.1883 12.0532 26.1883C12.5663 26.1883 13.0862 26.073 13.595 25.9603C14.0896 25.8507 14.5567 25.7471 15 25.7471C15.4432 25.7471 15.9103 25.8507 16.4049 25.9603C17.1936 26.1351 18.0089 26.3158 18.784 26.0641C19.5932 25.8013 20.1543 25.1618 20.697 24.5432C21.0195 24.1755 21.3243 23.8282 21.6596 23.5841C22.0016 23.3352 22.4305 23.1497 22.8847 22.9531C23.6353 22.6284 24.4115 22.2926 24.9049 21.6145C25.3935 20.9432 25.4742 20.1044 25.5523 19.2931C25.6 18.7971 25.6451 18.3285 25.778 17.9195C25.9028 17.535 26.1355 17.1442 26.382 16.7303C26.8052 16.0195 27.2428 15.2845 27.2428 14.4174C27.2428 13.5504 26.8052 12.8154 26.382 12.1046C26.1356 11.6907 25.9028 11.2998 25.778 10.9154C25.6451 10.5064 25.6 10.0378 25.5523 9.54174C25.4742 8.73051 25.3935 7.89168 24.9049 7.22038C24.4115 6.54227 23.6353 6.20647 22.8847 5.88174C22.4305 5.68522 22.0016 5.49965 21.6596 5.25081C21.3242 5.0067 21.0195 4.65942 20.697 4.29168C20.1543 3.67311 19.5932 3.03356 18.784 2.77077C18.0089 2.51911 17.1935 2.69981 16.4049 2.8746C15.9103 2.98422 15.4432 3.08776 15 3.08776C14.5567 3.08776 14.0896 2.98422 13.595 2.8746C12.8064 2.69981 11.9909 2.51911 11.2159 2.77077C10.4066 3.0335 9.84552 3.67311 9.30288 4.29168C8.98032 4.65936 8.67563 5.0067 8.34024 5.25081C7.99829 5.49965 7.56933 5.68528 7.11517 5.88174C6.36458 6.20647 5.58839 6.54227 5.09491 7.22038C4.60636 7.89168 4.52567 8.73051 4.44757 9.54174C4.39981 10.0377 4.35476 10.5063 4.22192 10.9154ZM5.32243 9.62588C5.39228 8.90014 5.45825 8.21471 5.80554 7.73747C6.15774 7.25354 6.79231 6.97897 7.46421 6.68829C7.94233 6.48145 8.43675 6.26752 8.85745 5.96131C9.27188 5.65973 9.62356 5.25889 9.96364 4.87124C10.4493 4.31764 10.908 3.79475 11.4874 3.60667C12.0346 3.42907 12.7001 3.57649 13.4049 3.73264C13.9239 3.84766 14.4606 3.96661 15 3.96661C15.5394 3.96661 16.0761 3.84766 16.5952 3.73264C17.2998 3.57643 17.9653 3.42889 18.5126 3.60667C19.092 3.79475 19.5508 4.31764 20.0364 4.87124C20.3765 5.25889 20.7281 5.65973 21.1426 5.96131C21.5633 6.26752 22.0577 6.48145 22.5358 6.68829C23.2076 6.97897 23.8422 7.25348 24.1945 7.73747C24.5418 8.21471 24.6077 8.90014 24.6776 9.62588C24.7277 10.1472 24.7797 10.6863 24.9422 11.1868C25.0974 11.6649 25.3666 12.1169 25.6269 12.5542C26.006 13.1908 26.3641 13.7922 26.3641 14.4174C26.3641 15.0426 26.006 15.644 25.6269 16.2806C25.3666 16.7178 25.0974 17.1699 24.9422 17.648C24.7797 18.1485 24.7277 18.6876 24.6776 19.2089C24.6077 19.9346 24.5418 20.6201 24.1945 21.0973C23.8423 21.5812 23.2077 21.8558 22.5358 22.1465C22.0577 22.3533 21.5633 22.5672 21.1426 22.8735C20.7281 23.175 20.3765 23.5759 20.0364 23.9635C19.5508 24.5171 19.092 25.04 18.5126 25.2281C17.9654 25.4058 17.2998 25.2583 16.5952 25.1021C16.0761 24.9871 15.5394 24.8682 15 24.8682C14.4606 24.8682 13.9239 24.9871 13.4049 25.1021C12.7003 25.2583 12.0346 25.4058 11.4874 25.2281C10.908 25.04 10.4493 24.5171 9.96364 23.9635C9.62356 23.5759 9.27188 23.175 8.85745 22.8735C8.43675 22.5672 7.94233 22.3534 7.46421 22.1465C6.79237 21.8558 6.1578 21.5813 5.80554 21.0973C5.45825 20.6201 5.39228 19.9346 5.32243 19.2089C5.27228 18.6876 5.22042 18.1486 5.05788 17.648C4.90267 17.1699 4.63349 16.7179 4.37315 16.2807C3.99405 15.644 3.63599 15.0426 3.63599 14.4174C3.63599 13.7922 3.99405 13.1908 4.37315 12.5542C4.63343 12.1169 4.90267 11.6648 5.05788 11.1868C5.22036 10.6863 5.27228 10.1472 5.32243 9.62588Z" fill="black"/>
<path d="M13.417 20.2432C13.3913 20.2432 13.3657 20.2428 13.34 20.2419C12.6903 20.2199 12.0794 19.9206 11.6639 19.4207L9.4823 16.7957C8.99872 16.2138 9.07864 15.347 9.66054 14.8634L10.2721 14.3551C10.8541 13.8715 11.7208 13.9514 12.2045 14.5333L13.3036 15.8558C13.3654 15.9301 13.4441 15.9435 13.4855 15.9449C13.5266 15.9463 13.6064 15.9383 13.673 15.8682C13.6767 15.8644 13.6805 15.8606 13.6844 15.8568L19.298 10.3797C19.5502 10.1182 19.8887 9.96949 20.2522 9.96064C20.618 9.9515 20.9666 10.0861 21.2319 10.3389L21.8077 10.8874C22.3556 11.4093 22.3767 12.2795 21.8548 12.8273C21.8518 12.8306 21.8487 12.8337 21.8456 12.8368L18.8625 15.7853C18.6898 15.956 18.4116 15.9543 18.2411 15.7816C18.0704 15.609 18.0721 15.3308 18.2446 15.1602L21.2223 12.217C21.406 12.0199 21.3971 11.71 21.2015 11.5237L20.6257 10.9751C20.5303 10.8843 20.4051 10.8356 20.2735 10.8391C20.1417 10.8424 20.0192 10.8966 19.9283 10.992C19.9245 10.9959 19.9208 10.9997 19.917 11.0034L14.3031 16.4807C14.082 16.7092 13.7725 16.8341 13.4557 16.823C13.1347 16.8122 12.8329 16.6643 12.6276 16.4173L11.5285 15.0948C11.3547 14.8856 11.043 14.8569 10.8339 15.0307L10.2222 15.539C10.013 15.7128 9.98433 16.0245 10.1581 16.2336L12.3397 18.8586C12.595 19.1658 12.9704 19.3497 13.3696 19.3632C13.7685 19.377 14.1558 19.2186 14.4313 18.9294C14.4344 18.9262 14.4375 18.9231 14.4406 18.92L16.9044 16.4847C17.0771 16.314 17.3553 16.3157 17.5259 16.4883C17.6965 16.661 17.6949 16.9392 17.5223 17.1098L15.0629 19.5407C14.6327 19.9898 14.0369 20.2432 13.417 20.2432Z" fill="black"/>
</svg>
